<?xml version="1.0" standalone="no"?>
<!DOCTYPE svg PUBLIC "-//W3C//DTD SVG 20010904//EN"
 "http://www.w3.org/TR/2001/REC-SVG-20010904/DTD/svg10.dtd">
<svg version="1.0" xmlns="http://www.w3.org/2000/svg"
 width="891.000000pt" height="891.000000pt" viewBox="0 0 891.000000 891.000000"
 preserveAspectRatio="xMidYMid meet">
<metadata>
Created by potrace 1.14, written by Peter Selinger 2001-2017
</metadata>
<g transform="translate(0.000000,891.000000) scale(0.100000,-0.100000)"
fill="#000000" stroke="none">
<path d="M8161 7840 c-93 -26 -165 -67 -240 -136 -195 -181 -244 -469 -119
-707 49 -93 155 -195 255 -245 46 -22 103 -44 128 -48 25 -3 46 -9 46 -13 1
-3 2 -498 3 -1100 1 -721 -2 -1095 -9 -1097 -5 -1 -91 -4 -190 -6 l-180 -4 2
466 c1 424 -1 469 -17 505 -20 47 -43 69 -91 89 -51 21 -7572 22 -7634 1 -49
-17 -91 -62 -104 -112 -6 -24 -9 -723 -9 -1889 0 -1514 3 -1858 14 -1890 16
-48 61 -90 111 -103 25 -6 1348 -10 3813 -10 3279 1 3779 3 3809 15 46 19 69
41 91 84 15 31 17 74 18 420 0 212 1 398 1 413 1 27 3 28 34 21 42 -9 441 -9
491 0 83 16 159 70 213 151 45 68 46 86 46 844 0 394 -3 729 -6 744 -18 89
-97 187 -183 226 l-49 22 0 1106 0 1106 55 13 c209 53 381 226 430 434 18 76
17 202 -4 279 -55 211 -219 374 -427 425 -86 21 -217 19 -298 -4z m-430 -2401
l24 -18 2 -1853 c1 -1201 -2 -1862 -8 -1879 -6 -15 -20 -31 -33 -37 -30 -14
-7518 -15 -7562 -1 -20 6 -36 20 -42 37 -14 37 -15 3686 -1 3723 6 15 20 31
32 37 15 6 1317 9 3793 10 3638 0 3771 -1 3795 -19z"/>
<path d="M487 5170 c-91 -11 -82 162 -85 -1603 -2 -1160 1 -1569 9 -1590 7
-15 21 -33 33 -39 15 -8 955 -11 3486 -11 3246 0 3468 1 3492 17 14 9 29 27
32 39 3 12 6 722 6 1578 l0 1556 -25 27 c-18 20 -34 26 -67 27 -218 4 -6845 3
-6881 -1z m2189 -1618 c0 -849 -3 -1545 -7 -1548 -14 -8 -2182 -5 -2190 3 -5
5 -8 696 -7 1549 l3 1539 1070 5 c589 3 1084 3 1100 0 l30 -6 1 -1542z m4699
1544 c13 -5 15 -199 15 -1545 0 -886 -4 -1542 -9 -1545 -6 -4 -2129 -10 -2248
-6 -10 0 -13 317 -13 1550 l0 1550 668 2 c889 4 1569 1 1587 -6z m-2315 -1546
l0 -1550 -1160 0 -1160 0 -1 28 c-1 34 -1 3007 0 3045 l1 27 1160 0 1160 0 0
-1550z"/>
<path d="M1117 4708 c-4 -12 -4 -24 -2 -26 2 -3 46 -13 96 -23 116 -24 150
-43 167 -95 18 -51 11 -90 -189 -1129 -17 -88 -33 -171 -35 -185 -23 -131 -98
-513 -115 -580 -37 -155 -75 -196 -207 -225 -123 -28 -127 -29 -130 -56 l-3
-24 790 0 790 0 12 25 c53 116 197 506 189 513 -3 3 -15 8 -27 11 -19 6 -25 0
-44 -36 -34 -67 -124 -201 -170 -252 -73 -81 -151 -130 -248 -152 -40 -10
-475 -17 -536 -9 -68 8 -113 39 -133 89 -21 53 -11 130 73 576 36 195 69 366
71 380 3 14 20 108 39 210 19 102 46 248 60 325 15 77 33 176 41 220 8 44 18
94 20 110 10 58 36 149 50 177 29 55 106 93 229 113 67 10 75 15 75 41 l0 24
-429 0 -429 0 -5 -22z"/>
<path d="M6293 4683 c-156 -29 -292 -131 -472 -355 l-24 -30 21 -21 21 -21 73
71 c93 89 165 136 257 163 91 28 185 23 263 -13 67 -31 104 -68 137 -137 22
-47 26 -69 26 -155 0 -116 -18 -180 -73 -263 -74 -113 -261 -230 -469 -297
-93 -29 -105 -40 -84 -73 7 -11 19 -12 63 -3 173 36 329 -2 432 -105 87 -87
127 -198 127 -359 0 -368 -175 -582 -491 -600 -160 -10 -283 37 -420 161 -71
65 -86 75 -109 69 -58 -14 -107 -92 -96 -152 8 -45 84 -122 155 -158 210 -107
484 -76 768 86 299 171 476 433 475 700 -1 137 -41 236 -134 327 -70 70 -144
115 -257 158 -48 18 -81 33 -74 34 29 0 210 121 283 188 129 121 187 245 176
382 -23 288 -267 460 -574 403z"/>
<path d="M3896 4574 c-6 -6 -47 -126 -91 -267 l-80 -257 -159 -2 -159 -3 -28
-90 c-16 -49 -29 -95 -29 -101 0 -8 47 -11 150 -11 83 0 152 -2 154 -4 3 -2
-30 -113 -72 -246 l-76 -243 -165 -2 -164 -3 -27 -97 -27 -98 158 0 c88 0 159
-3 159 -7 0 -5 -41 -138 -90 -297 -49 -159 -88 -291 -86 -294 3 -2 25 -5 50
-5 l44 -2 91 291 c50 161 91 297 91 303 0 8 59 11 201 11 171 0 200 -2 196
-14 -7 -17 -118 -374 -154 -495 -28 -93 -26 -101 35 -94 20 2 37 5 38 6 2 2
39 121 141 450 l46 147 153 0 153 0 10 38 c6 20 17 60 26 87 8 28 15 56 15 63
0 9 -36 12 -145 12 -80 0 -145 3 -145 6 0 16 143 470 151 478 5 5 74 10 153
10 83 1 149 5 154 11 5 6 18 45 30 87 12 42 25 84 28 92 5 14 -12 16 -149 16
l-155 0 33 103 c18 56 55 175 83 264 54 177 55 172 -18 165 -40 -4 -25 29
-124 -292 -32 -102 -61 -196 -65 -210 l-8 -25 -196 -3 c-108 -1 -197 1 -197 6
0 4 33 116 74 248 41 131 76 247 78 258 2 15 -4 19 -36 20 -22 0 -44 -4 -50
-10z m245 -733 c15 -1 15 -6 -3 -58 -10 -32 -45 -141 -76 -243 l-58 -185 -198
-3 c-185 -2 -197 -1 -192 15 15 48 146 475 146 477 0 1 354 -1 381 -3z"/>
</g>
</svg>
